<mxfile host="app.diagrams.net" modified="2024-05-24T03:04:37.456Z" agent="Mozilla/5.0 (Macintosh; Intel Mac OS X 10_15_7) AppleWebKit/537.36 (KHTML, like Gecko) Chrome/125.0.0.0 Safari/537.36" version="24.4.7" etag="RdlATbI-qeWEMrvaV1bO" type="github">
  <diagram name="第 1 页" id="g9GaiNzB98gWVUfawiRK">
    <mxGraphModel>
      <root>
        <mxCell id="0" />
        <mxCell id="1" parent="0" />
      </root>
    </mxGraphModel>
  </diagram>
</mxfile>
